<?xml version="1.0" encoding="iso-8859-1"?>
<!-- Uploaded to: SVG Repo, www.svgrepo.com, Generator: SVG Repo Mixer Tools -->
<svg height="800px" width="800px" version="1.1" id="Layer_1" xmlns="http://www.w3.org/2000/svg" xmlns:xlink="http://www.w3.org/1999/xlink" 
	 viewBox="0 0 512 512" xml:space="preserve">
<path style="fill:#F2D546;" d="M65.428,73.484h31.15c9.219,0,16.692,7.473,16.692,16.692v21.777H48.737V90.176
	C48.737,80.957,56.211,73.484,65.428,73.484z"/>
<path style="fill:#D6BA30;" d="M65.428,73.484h7.794v38.469H48.737V90.176C48.737,80.957,56.211,73.484,65.428,73.484z"/>
<path style="fill:#F24141;" d="M512,112.109v287.782c0,25.984-21.06,47.031-47.031,47.031H47.031C21.06,446.923,0,425.875,0,399.891
	V150.148c0-25.984,21.06-47.031,47.031-47.031h59.409c23.913,0,47.366-6.586,67.781-19.026
	c20.427-12.428,43.881-19.013,67.794-19.013h222.953C490.94,65.078,512,86.137,512,112.109z"/>
<path style="fill:#F97D7D;" d="M464.969,65.078h-20.245c25.971,0,47.031,21.06,47.031,47.031v287.782
	c0,25.984-21.06,47.031-47.031,47.031h20.245c25.971,0,47.031-21.048,47.031-47.031V112.109
	C512,86.137,490.94,65.078,464.969,65.078z"/>
<path style="fill:#F2D546;" d="M512,368.5v31.391c0,25.984-21.06,47.031-47.031,47.031H47.031C21.06,446.923,0,425.875,0,399.891
	V368.5L512,368.5L512,368.5z"/>
<circle style="fill:#D6BA30;" cx="256.006" cy="274.61" r="133.231"/>
<circle style="fill:#495E77;" cx="256.006" cy="274.61" r="85.877"/>
<path style="fill:#62788E;" d="M256.001,188.728c-7.181,0-14.152,0.894-20.819,2.555c37.368,9.307,65.06,43.076,65.06,83.324
	s-27.693,74.017-65.06,83.324c6.668,1.661,13.637,2.555,20.819,2.555c47.43,0,85.879-38.45,85.879-85.879
	S303.431,188.728,256.001,188.728z"/>
<path style="fill:#F2D546;" d="M256.001,369.789c-52.482,0-95.182-42.698-95.182-95.182s42.698-95.182,95.182-95.182
	s95.182,42.698,95.182,95.182C351.182,327.092,308.485,369.789,256.001,369.789z M256.001,198.031
	c-42.224,0-76.577,34.352-76.577,76.577c0,42.224,34.352,76.577,76.577,76.577s76.577-34.352,76.577-76.577
	C332.577,232.383,298.225,198.031,256.001,198.031z"/>
<path style="fill:#88E2DB;" d="M403.707,161.4h50.362c8.321,0,15.066-6.745,15.066-15.066v-23.992
	c0-8.321-6.746-15.066-15.066-15.066h-50.362c-8.321,0-15.066,6.745-15.066,15.066v23.992
	C388.642,154.656,395.386,161.4,403.707,161.4z"/>
<path style="fill:#B5F4EE;" d="M454.069,107.276h-22.325c8.321,0,15.066,6.745,15.066,15.066v23.992
	c0,8.321-6.745,15.066-15.066,15.066h22.325c8.321,0,15.066-6.746,15.066-15.066v-23.991
	C469.135,114.021,462.389,107.276,454.069,107.276z"/>
<g>
	<path style="fill:#F2D546;" d="M454.069,170.702h-50.36c-13.437,0-24.368-10.931-24.368-24.368v-23.992
		c0-13.436,10.931-24.368,24.368-24.368h50.36c13.437,0,24.368,10.931,24.368,24.368v23.993
		C478.437,159.772,467.506,170.702,454.069,170.702z M403.707,116.579c-3.179,0-5.764,2.585-5.764,5.764v23.993
		c0,3.179,2.586,5.764,5.764,5.764h50.36c3.179,0,5.764-2.585,5.764-5.764v-23.993c0-3.179-2.586-5.764-5.764-5.764
		C454.068,116.579,403.707,116.579,403.707,116.579z"/>
	<circle style="fill:#F2D546;" cx="65.053" cy="309.202" r="29.144"/>
</g>
<circle style="fill:#62788E;" cx="223.511" cy="245.253" r="19.068"/>
<path style="fill:#F9E178;" d="M512,368.5v31.391c0,25.984-21.06,47.031-47.031,47.031h-20.241
	c25.971,0,47.031-21.048,47.031-47.031V368.5H512z"/>
</svg>